<svg width="21" height="21" viewBox="0 0 21 21" fill="none" xmlns="http://www.w3.org/2000/svg">
<g clip-path="url(#clip0_20_701)">
<path d="M10.4999 2.5714C13.0835 2.5714 13.3895 2.58273 14.4056 2.62806C15.3499 2.66961 15.8598 2.82825 16.1998 2.96046C16.6493 3.13421 16.9741 3.34574 17.3103 3.68192C17.6503 4.02187 17.858 4.34294 18.0318 4.79243C18.164 5.13239 18.3226 5.6461 18.3642 6.58664C18.4095 7.6065 18.4208 7.91246 18.4208 10.4923C18.4208 13.076 18.4095 13.3819 18.3642 14.398C18.3226 15.3424 18.164 15.8523 18.0318 16.1922C17.858 16.6417 17.6465 16.9666 17.3103 17.3028C16.9704 17.6427 16.6493 17.8505 16.1998 18.0242C15.8598 18.1564 15.3461 18.3151 14.4056 18.3566C13.3857 18.4019 13.0798 18.4133 10.4999 18.4133C7.91624 18.4133 7.61028 18.4019 6.59419 18.3566C5.64988 18.3151 5.13994 18.1564 4.79999 18.0242C4.35049 17.8505 4.02565 17.6389 3.68947 17.3028C3.34952 16.9628 3.14177 16.6417 2.96801 16.1922C2.83581 15.8523 2.67716 15.3386 2.63561 14.398C2.59029 13.3782 2.57895 13.0722 2.57895 10.4923C2.57895 7.90868 2.59029 7.60272 2.63561 6.58664C2.67716 5.64232 2.83581 5.13239 2.96801 4.79243C3.14177 4.34294 3.35329 4.01809 3.68947 3.68192C4.02943 3.34196 4.35049 3.13421 4.79999 2.96046C5.13994 2.82825 5.65365 2.66961 6.59419 2.62806C7.61028 2.58273 7.91624 2.5714 10.4999 2.5714ZM10.4999 0.830078C7.87469 0.830078 7.54607 0.84141 6.51487 0.886737C5.48745 0.932064 4.7811 1.09826 4.16919 1.33623C3.53083 1.58553 2.99068 1.91415 2.4543 2.4543C1.91415 2.99068 1.58553 3.53083 1.33623 4.16541C1.09826 4.7811 0.932064 5.48368 0.886737 6.51109C0.84141 7.54606 0.830078 7.87469 0.830078 10.4999C0.830078 13.1251 0.84141 13.4537 0.886737 14.4849C0.932064 15.5123 1.09826 16.2187 1.33623 16.8306C1.58553 17.469 1.91415 18.0091 2.4543 18.5455C2.99068 19.0818 3.53083 19.4142 4.16541 19.6598C4.7811 19.8977 5.48368 20.0639 6.51109 20.1093C7.54229 20.1546 7.87091 20.1659 10.4961 20.1659C13.1213 20.1659 13.4499 20.1546 14.4811 20.1093C15.5086 20.0639 16.2149 19.8977 16.8268 19.6598C17.4614 19.4142 18.0015 19.0818 18.5379 18.5455C19.0743 18.0091 19.4067 17.469 19.6522 16.8344C19.8902 16.2187 20.0564 15.5161 20.1017 14.4887C20.147 13.4575 20.1584 13.1289 20.1584 10.5037C20.1584 7.87847 20.147 7.54984 20.1017 6.51865C20.0564 5.49123 19.8902 4.78488 19.6522 4.17296C19.4142 3.53083 19.0856 2.99068 18.5455 2.4543C18.0091 1.91793 17.469 1.58553 16.8344 1.34001C16.2187 1.10204 15.5161 0.935842 14.4887 0.890514C13.4537 0.84141 13.1251 0.830078 10.4999 0.830078Z" fill="#3A3A3A"/>
<path d="M10.5003 5.5332C7.75802 5.5332 5.5332 7.75802 5.5332 10.5003C5.5332 13.2426 7.75802 15.4674 10.5003 15.4674C13.2426 15.4674 15.4674 13.2426 15.4674 10.5003C15.4674 7.75802 13.2426 5.5332 10.5003 5.5332ZM10.5003 13.7223C8.72122 13.7223 7.2783 12.2794 7.2783 10.5003C7.2783 8.72122 8.72122 7.2783 10.5003 7.2783C12.2794 7.2783 13.7223 8.72122 13.7223 10.5003C13.7223 12.2794 12.2794 13.7223 10.5003 13.7223Z" fill="#3A3A3A"/>
<path d="M16.8232 5.33638C16.8232 5.97852 16.3019 6.496 15.6635 6.496C15.0214 6.496 14.5039 5.97474 14.5039 5.33638C14.5039 4.69424 15.0252 4.17676 15.6635 4.17676C16.3019 4.17676 16.8232 4.69802 16.8232 5.33638Z" fill="#3A3A3A"/>
</g>
<defs>
<clipPath id="clip0_20_701">
<rect width="19.3396" height="19.3396" fill="white" transform="translate(0.830078 0.830078)"/>
</clipPath>
</defs>
</svg>
