<svg width="21" height="21" viewBox="0 0 21 21" fill="none" xmlns="http://www.w3.org/2000/svg">
<g clip-path="url(#clip0_20_698)">
<path d="M10.4999 0.830078C5.15945 0.830078 0.830078 5.15945 0.830078 10.4999C0.830078 15.0346 3.95227 18.8399 8.16405 19.885V13.455H6.17013V10.4999H8.16405V9.22657C8.16405 5.93535 9.65359 4.40984 12.8849 4.40984C13.4975 4.40984 14.5546 4.53013 14.9871 4.65004V7.32858C14.7589 7.3046 14.3624 7.29261 13.87 7.29261C12.2845 7.29261 11.6719 7.8933 11.6719 9.45478V10.4999H14.8304L14.2877 13.455H11.6719V20.0989C16.46 19.5207 20.1701 15.4439 20.1701 10.4999C20.1697 5.15945 15.8403 0.830078 10.4999 0.830078Z" fill="#3A3A3A"/>
</g>
<defs>
<clipPath id="clip0_20_698">
<rect width="19.3396" height="19.3396" fill="white" transform="translate(0.830078 0.830078)"/>
</clipPath>
</defs>
</svg>
